<svg width="365" height="204" viewBox="0 0 365 204" fill="none" xmlns="http://www.w3.org/2000/svg">
<g id="Group 2">
<g id="source">
<path id="Vector" d="M83.966 158.976C127.866 158.976 163.454 123.388 163.454 79.4878C163.454 35.5879 127.866 0 83.966 0C40.0661 0 4.47821 35.5879 4.47821 79.4878C4.47821 123.388 40.0661 158.976 83.966 158.976Z" fill="#F2F2F2"/>
<path id="Vector_2" d="M27.699 60.582C27.699 60.582 33.4518 60.4049 35.1855 59.1703C36.9193 57.9357 44.0348 56.4615 44.4649 58.4415C44.895 60.4215 53.1103 68.2891 46.6154 68.3415C40.1205 68.3939 31.5242 67.3298 29.7938 66.2758C28.0633 65.2217 27.699 60.582 27.699 60.582Z" fill="#A8A8A8"/>
<path id="Vector_3" opacity="0.2" d="M46.7313 67.6523C40.2364 67.7047 31.6401 66.6406 29.9097 65.5865C28.5919 64.7838 28.0667 61.9034 27.891 60.5745C27.7693 60.5797 27.699 60.582 27.699 60.582C27.699 60.582 28.0633 65.2217 29.7938 66.2757C31.5242 67.3298 40.1205 68.3939 46.6154 68.3415C48.4902 68.3264 49.1378 67.6593 49.1023 66.6714C48.8418 67.2683 48.1267 67.641 46.7313 67.6523Z" fill="black"/>
<path id="Vector_4" d="M69.785 156.714C108.326 156.714 139.57 152.464 139.57 147.22C139.57 141.977 108.326 137.727 69.785 137.727C31.2438 137.727 0 141.977 0 147.22C0 152.464 31.2438 156.714 69.785 156.714Z" fill="#3F3D56"/>
<path id="Vector_5" opacity="0.1" d="M69.785 155.191C102.143 155.191 128.375 151.622 128.375 147.22C128.375 142.818 102.143 139.25 69.785 139.25C37.4269 139.25 11.1954 142.818 11.1954 147.22C11.1954 151.622 37.4269 155.191 69.785 155.191Z" fill="black"/>
<path id="Vector_6" d="M113.821 48.1405H36.1987V138.451H113.821V48.1405Z" fill="#2F2E41"/>
<path id="Vector_7" d="M121.657 39.1841H28.3618V71.2777H121.657V39.1841Z" fill="#3F3D56"/>
<path id="Vector_8" d="M121.657 77.2487H28.3618V109.342H121.657V77.2487Z" fill="#3F3D56"/>
<path id="Vector_9" d="M121.657 115.313H28.3618V147.407H121.657V115.313Z" fill="#3F3D56"/>
<path id="Vector_10" opacity="0.4" d="M102.998 44.7819H97.0273V50.7528H102.998V44.7819Z" fill="#00F0C5"/>
<path id="Vector_11" opacity="0.8" d="M111.581 44.7819H105.61V50.7528H111.581V44.7819Z" fill="#00F0C5"/>
<path id="Vector_12" d="M120.165 44.7819H114.194V50.7528H120.165V44.7819Z" fill="#00F0C5"/>
<path id="Vector_13" opacity="0.4" d="M102.998 82.4732H97.0273V88.4441H102.998V82.4732Z" fill="#00F0C5"/>
<path id="Vector_14" opacity="0.8" d="M111.581 82.4732H105.61V88.4441H111.581V82.4732Z" fill="#00F0C5"/>
<path id="Vector_15" d="M120.165 82.4732H114.194V88.4441H120.165V82.4732Z" fill="#00F0C5"/>
<path id="Vector_16" opacity="0.4" d="M102.998 120.165H97.0273V126.136H102.998V120.165Z" fill="#00F0C5"/>
<path id="Vector_17" opacity="0.8" d="M111.581 120.165H105.61V126.136H111.581V120.165Z" fill="#00F0C5"/>
<path id="Vector_18" d="M120.165 120.165H114.194V126.136H120.165V120.165Z" fill="#00F0C5"/>
</g>
<g id="bulb">
<path id="Path 2546" d="M333.592 130.547C333.401 130.547 333.217 130.471 333.082 130.336C332.947 130.201 332.871 130.017 332.871 129.826V124.687C332.871 118.647 338.828 113.008 343.178 108.891C343.539 108.549 343.89 108.218 344.227 107.895C350.244 102.142 353.425 94.3267 353.425 85.2928C353.425 68.4091 340.199 55.1832 323.315 55.1832H323.23C315.285 55.1921 307.666 58.3467 302.039 63.9572C296.413 69.5677 293.237 77.1777 293.206 85.1233V85.2916C293.206 94.1387 296.557 102.376 302.4 107.892C302.696 108.171 303.004 108.459 303.319 108.755C307.725 112.88 313.76 118.529 313.76 124.688V129.826C313.76 130.017 313.684 130.201 313.548 130.336C313.413 130.471 313.23 130.547 313.038 130.547C312.847 130.547 312.664 130.471 312.528 130.336C312.393 130.201 312.317 130.017 312.317 129.826V124.687C312.317 119.154 306.547 113.752 302.333 109.806C302.016 109.509 301.709 109.221 301.41 108.939C295.28 103.152 291.763 94.5332 291.763 85.2918V85.1187C291.812 67.7985 305.92 53.7398 323.228 53.7398H323.317C331.642 53.6965 339.642 56.9618 345.559 62.8174C351.476 68.6729 354.824 76.639 354.867 84.9633C354.868 85.0731 354.868 85.183 354.867 85.2928C354.867 94.7301 351.533 102.906 345.224 108.937C344.885 109.261 344.533 109.595 344.17 109.939C340.01 113.876 334.313 119.268 334.313 124.687V129.826C334.313 130.017 334.237 130.201 334.101 130.336C333.966 130.471 333.783 130.547 333.592 130.547H333.592Z" fill="white"/>
<g id="light">
<path id="Vector_19" d="M354.147 85.2924C354.147 94.5818 350.902 102.513 344.726 108.415C340.343 112.605 333.592 118.479 333.592 124.688V129.826H313.037V124.688C313.037 118.414 306.26 112.528 301.904 108.415C295.867 102.72 292.482 94.2501 292.482 85.2924V85.1025C292.509 76.9261 295.782 69.095 301.582 63.3317C307.382 57.5684 315.234 54.3448 323.41 54.37C331.586 54.3952 339.418 57.6671 345.182 63.466C350.946 69.2649 354.171 77.116 354.147 85.2924Z" fill="#00F0C5"/>
<path id="Path 2547" d="M330.167 139.802H316.464C316.145 139.802 315.839 139.675 315.614 139.45C315.388 139.224 315.261 138.919 315.261 138.6C315.261 138.281 315.388 137.975 315.614 137.75C315.839 137.524 316.145 137.398 316.464 137.398H330.167C330.486 137.398 330.791 137.524 331.017 137.75C331.242 137.975 331.369 138.281 331.369 138.6C331.369 138.919 331.242 139.224 331.017 139.45C330.791 139.675 330.486 139.802 330.167 139.802V139.802Z" fill="#00F0C5"/>
<path id="Path 2548" d="M291.437 56.9582C291.146 56.9585 290.866 56.8532 290.647 56.6618L280.324 47.651C280.088 47.4403 279.944 47.1448 279.924 46.8287C279.904 46.5127 280.01 46.2015 280.218 45.9629C280.426 45.7243 280.72 45.5776 281.036 45.5546C281.352 45.5316 281.664 45.6341 281.905 45.84L292.228 54.8508C292.412 55.0117 292.543 55.2251 292.603 55.4624C292.663 55.6997 292.649 55.9496 292.563 56.1787C292.477 56.4078 292.323 56.6053 292.122 56.7446C291.921 56.8839 291.682 56.9585 291.437 56.9584V56.9582Z" fill="#E4E4E4"/>
<path id="Path 2549" d="M353.481 56.9582C353.237 56.9583 352.998 56.8837 352.796 56.7444C352.595 56.605 352.441 56.4076 352.355 56.1785C352.269 55.9493 352.255 55.6994 352.315 55.4621C352.375 55.2248 352.506 55.0114 352.69 54.8505L363.013 45.839C363.254 45.6331 363.566 45.5306 363.882 45.5536C364.198 45.5766 364.492 45.7234 364.7 45.962C364.908 46.2005 365.014 46.5117 364.994 46.8278C364.974 47.1439 364.83 47.4393 364.594 47.65L354.271 56.6608C354.053 56.8525 353.772 56.9582 353.481 56.9582Z" fill="#E4E4E4"/>
<path id="Path 2550" d="M333.592 135.536H313.037C312.718 135.536 312.413 135.409 312.187 135.184C311.962 134.958 311.835 134.652 311.835 134.334C311.835 134.015 311.962 133.709 312.187 133.484C312.413 133.258 312.718 133.132 313.037 133.132H333.592C333.911 133.132 334.217 133.258 334.442 133.484C334.668 133.709 334.794 134.015 334.794 134.334C334.794 134.652 334.668 134.958 334.442 135.184C334.217 135.409 333.911 135.536 333.592 135.536V135.536Z" fill="#00F0C5"/>
<path id="Path 2553" d="M323.315 44.9591C322.996 44.9591 322.691 44.8325 322.465 44.6071C322.24 44.3816 322.113 44.0759 322.113 43.7571V23.2021C322.113 22.8833 322.24 22.5776 322.465 22.3521C322.691 22.1267 322.996 22.0001 323.315 22.0001C323.634 22.0001 323.94 22.1267 324.165 22.3521C324.391 22.5776 324.517 22.8833 324.517 23.2021V43.7571C324.517 44.0759 324.391 44.3816 324.165 44.6071C323.94 44.8325 323.634 44.9591 323.315 44.9591V44.9591Z" fill="#E4E4E4"/>
</g>
<path id="Vector_20" d="M324.789 147.855H321.84C320.815 147.856 319.81 147.578 318.932 147.05C318.802 146.974 318.701 146.856 318.646 146.716C318.59 146.576 318.584 146.421 318.627 146.277C318.667 146.129 318.754 145.998 318.876 145.905C318.998 145.812 319.147 145.761 319.301 145.762H327.328C327.481 145.761 327.63 145.812 327.752 145.905C327.874 145.998 327.962 146.129 328.001 146.277C328.044 146.421 328.038 146.576 327.983 146.716C327.927 146.856 327.826 146.974 327.696 147.05C326.818 147.578 325.813 147.856 324.789 147.855V147.855Z" fill="#3F3D56"/>
<path id="Vector_21" d="M330.169 143.599L316.385 143.597L316.342 143.506C316.301 143.337 316.3 143.162 316.337 142.993C316.375 142.824 316.45 142.665 316.558 142.53C316.668 142.391 316.807 142.279 316.967 142.202C317.126 142.125 317.3 142.085 317.477 142.086H329.151C329.328 142.085 329.503 142.125 329.662 142.202C329.821 142.279 329.961 142.391 330.07 142.53C330.177 142.664 330.253 142.82 330.291 142.987C330.329 143.154 330.328 143.327 330.289 143.494L330.267 143.586L330.169 143.599Z" fill="#3F3D56"/>
<path id="Vector_22" d="M322.81 104.133L318.536 129.826H316.096L320.437 103.739C320.49 103.424 320.665 103.143 320.924 102.958C321.184 102.772 321.506 102.698 321.821 102.75C322.136 102.802 322.417 102.977 322.602 103.237C322.788 103.496 322.862 103.819 322.81 104.133V104.133Z" fill="white"/>
<path id="Vector_23" d="M331.025 129.826H328.585L324.31 104.133C324.258 103.819 324.333 103.496 324.518 103.237C324.704 102.977 324.985 102.802 325.3 102.75C325.614 102.698 325.937 102.772 326.196 102.958C326.456 103.143 326.631 103.424 326.683 103.739L331.025 129.826Z" fill="white"/>
<path id="Path 2551" d="M315.503 103.275C315.503 102.956 315.629 102.65 315.855 102.425C316.08 102.2 316.386 102.073 316.705 102.073H329.926C330.244 102.073 330.55 102.2 330.776 102.425C331.001 102.65 331.128 102.956 331.128 103.275C331.128 103.594 331.001 103.9 330.776 104.125C330.55 104.35 330.244 104.477 329.926 104.477H316.705C316.386 104.477 316.08 104.35 315.855 104.125C315.629 103.9 315.503 103.594 315.503 103.275V103.275Z" fill="white"/>
<path id="Vector 7" d="M323.584 147.762C323.584 147.762 326.768 192.987 306.977 196.463C289.095 199.603 298.158 151.433 286.079 169.967C274 188.5 235.145 187.933 213.5 187" stroke="#00F0C5" stroke-width="2"/>
<g id="plug">
<rect id="Rectangle 1" x="213" y="172" width="30" height="32" fill="#1B1B1B"/>
<path id="Vector_24" d="M240.662 185.971H242.744V189.358H240.662H240.558L240.485 189.432L237.837 192.08H232.36V190.775V190.525H232.11H229.25V189.47H232.11H232.36V189.22V186.11V185.86H232.11H229.25V184.805H232.11H232.36V184.555V183.25H237.837L240.485 185.898L240.558 185.971H240.662Z" fill="#00F0C5" stroke="#D9C8C8" stroke-width="0.5"/>
</g>
</g>
<path id="Vector 8" d="M117.366 92.9224C117.366 92.9224 143.675 130.614 163.64 115.127C183.606 99.6396 159.908 164.014 159.908 180.06C159.908 196.107 194.801 187.524 194.801 187.524" stroke="#00F0C5" stroke-width="2"/>
<path id="Vector 9" d="M204.349 192.562L204.349 181.634C204.349 181.634 192.591 180.837 192.105 187.091C191.62 193.344 204.349 192.562 204.349 192.562Z" fill="#00F0C5" stroke="white" stroke-width="0.5"/>
</g>
</svg>
